<?xml version="1.0" standalone="no"?>
<!DOCTYPE svg PUBLIC "-//W3C//DTD SVG 20010904//EN"
 "http://www.w3.org/TR/2001/REC-SVG-20010904/DTD/svg10.dtd">
<svg version="1.0" xmlns="http://www.w3.org/2000/svg"
 width="612.000000pt" height="612.000000pt" viewBox="0 0 612.000000 612.000000"
 preserveAspectRatio="xMidYMid meet">

<g transform="translate(0.000000,612.000000) scale(0.100000,-0.100000)"
fill="#4a773c" stroke="#4a773c" stroke-width="100">
<path d="M2570 5707 c-121 -37 -211 -90 -303 -181 -93 -92 -145 -174 -184
-291 -24 -71 -27 -96 -27 -215 0 -122 2 -143 27 -215 83 -238 263 -409 499
-475 89 -25 253 -27 346 -5 251 59 460 263 528 515 24 88 25 271 1 358 -69
254 -276 457 -528 517 -98 23 -267 19 -359 -8z m324 -177 c98 -25 176 -69 243
-137 80 -81 151 -222 141 -281 l-3 -22 -36 24 c-257 176 -554 211 -892 106
-38 -12 -71 -19 -74 -16 -13 12 67 137 123 191 73 72 138 109 236 135 95 25
166 25 262 0z m7 -461 c77 -21 189 -74 248 -117 82 -60 111 -88 111 -106 0
-36 -66 -142 -125 -201 -126 -125 -314 -180 -482 -140 -160 38 -288 137 -357
276 -35 71 -63 180 -52 198 8 12 154 64 239 85 158 39 288 41 418 5z"/>
<path d="M2295 4190 c-215 -46 -415 -228 -500 -454 -44 -116 -56 -219 -56
-466 0 -240 9 -393 41 -665 11 -93 47 -442 80 -775 32 -333 62 -626 65 -652
l6 -47 -74 -50 c-148 -100 -286 -158 -448 -191 -120 -23 -167 -50 -216 -123
-76 -113 -44 -258 75 -342 l44 -30 1436 -3 c1210 -2 1449 0 1512 12 190 36
370 134 498 271 83 88 128 159 174 270 29 72 32 90 33 180 0 92 -3 105 -32
167 -37 78 -98 149 -168 193 -27 17 -129 61 -225 98 -96 37 -328 125 -515 197
-187 72 -389 150 -449 172 -128 49 -146 68 -146 160 l0 58 53 34 c28 19 151
94 272 167 233 140 555 336 643 391 30 18 61 46 69 62 18 34 12 90 -13 117
-16 18 -13 22 54 93 180 189 271 412 242 592 -22 136 -78 235 -141 248 -25 5
-66 -9 -208 -70 -231 -100 -284 -128 -338 -183 -53 -55 -68 -80 -108 -186 -28
-74 -33 -82 -75 -102 -123 -60 -541 -253 -548 -253 -5 0 -46 91 -92 203 -135
333 -187 438 -269 547 -129 171 -275 288 -427 340 -67 24 -189 33 -249 20z
m237 -217 c188 -84 355 -299 474 -608 12 -33 52 -131 88 -217 l65 -158 -42
-11 c-23 -6 -69 -15 -102 -20 -92 -13 -127 -67 -90 -138 21 -41 63 -53 143
-41 95 13 141 32 477 190 517 243 474 225 489 209 36 -37 216 -275 216 -284 0
-5 -130 -88 -288 -183 -158 -95 -375 -227 -482 -292 -107 -65 -215 -124 -239
-130 -57 -14 -198 -14 -252 0 -185 50 -332 212 -433 477 -37 97 -90 301 -101
390 -12 94 -84 140 -149 98 -48 -32 -50 -58 -17 -221 86 -422 239 -697 468
-841 121 -75 195 -96 353 -98 l135 -3 3 -43 c4 -62 46 -142 96 -186 36 -31 98
-59 342 -152 165 -63 418 -160 564 -216 146 -56 297 -114 337 -129 191 -72
242 -214 146 -408 -85 -172 -240 -297 -445 -360 l-73 -23 -962 -3 c-530 -1
-963 0 -963 3 0 3 47 100 105 215 l105 210 473 0 472 0 28 23 c18 14 30 35 34
59 5 32 1 41 -25 68 l-30 30 -666 0 c-421 0 -667 4 -671 10 -3 5 -35 301 -71
657 -35 357 -73 727 -84 823 -30 269 -43 529 -37 700 10 252 54 377 177 501
135 137 279 171 432 102z m2033 -368 c14 -105 -13 -197 -91 -315 -48 -72 -140
-173 -153 -168 -5 2 -50 57 -101 122 l-92 119 12 39 c13 47 73 116 115 134 17
7 84 38 150 68 66 30 128 55 137 55 13 1 18 -11 23 -54z m-2278 -2612 c-2 -5
-49 -101 -105 -215 l-102 -208 -350 0 c-337 0 -351 1 -370 20 -25 25 -26 72
-2 92 9 8 50 20 91 26 179 30 348 107 570 261 43 30 47 31 158 31 63 0 112 -3
110 -7z"/>
</g>
</svg>
