<?xml version="1.0" encoding="UTF-8"?>
<svg version="1.1" xmlns="http://www.w3.org/2000/svg" width="612" height="612">
<path d="M0 0 C16.53385217 13.15722039 16.53385217 13.15722039 19.11328125 19.62890625 C19.56380859 20.75039062 19.56380859 20.75039062 20.0234375 21.89453125 C21.0134375 22.22453125 22.0034375 22.55453125 23.0234375 22.89453125 C24.27856445 24.4699707 24.27856445 24.4699707 25.51171875 26.5078125 C25.97126953 27.26255859 26.43082031 28.01730469 26.90429688 28.79492188 C27.37673828 29.59091797 27.84917969 30.38691406 28.3359375 31.20703125 C29.02719727 32.3372168 29.02719727 32.3372168 29.73242188 33.49023438 C36.54735342 44.79790244 41.70923992 56.66622282 46.5859375 68.89453125 C47.41765661 70.96666114 48.25080177 73.0382124 49.08432007 75.10961914 C49.62501277 76.45464392 50.16444395 77.80017659 50.70254517 79.14624023 C52.77173973 84.31284148 54.93846328 89.43418179 57.15600586 94.5390625 C58.0234375 96.89453125 58.0234375 96.89453125 58.0234375 99.89453125 C59.69016436 99.12252578 61.3568131 98.35035165 63.0234375 97.578125 C64.12365234 97.06886475 65.22386719 96.55960449 66.35742188 96.03491211 C68.83098272 94.88813783 71.30050391 93.7331691 73.76757812 92.57250977 C80.02231672 89.63686283 86.28632905 86.75507794 92.64819336 84.057724 C95.57373004 82.81256438 98.48454105 81.53493815 101.39453125 80.25393677 C102.80332585 79.64386974 104.21876494 79.04890301 105.640625 78.46994019 C113.90424258 75.2652625 113.90424258 75.2652625 119.72949219 68.9230957 C120.7233864 65.92103137 121.38233044 62.98661521 122.0234375 59.89453125 C129.83610736 41.97384782 145.69188373 34.7567825 162.9609375 27.89453125 C163.75113281 27.59160156 164.54132813 27.28867188 165.35546875 26.9765625 C167.42033421 26.13912805 169.45429887 25.22528352 171.47265625 24.28125 C183.52660755 18.65017181 183.52660755 18.65017181 190.0234375 20.89453125 C196.20539449 25.35129094 200.22173809 34.07961648 201.734375 41.46484375 C204.30847667 63.10121183 196.44161475 81.24186318 183.40234375 98.22998047 C180.51201656 101.71904753 177.16671485 104.72962832 173.76171875 107.7109375 C171.71236552 109.78492999 171.71236552 109.78492999 172.19140625 112.609375 C172.81747426 114.82940546 172.81747426 114.82940546 174.0234375 115.89453125 C174.61443187 124.75944682 174.61443187 124.75944682 171.0234375 128.89453125 C164.26315429 133.89316475 156.86849741 138.04621066 149.6484375 142.33203125 C142.51719682 146.57000093 135.43665861 150.86150806 128.45263672 155.33862305 C121.09262744 160.05272749 113.62943439 164.58924999 106.0234375 168.89453125 C103.66175961 170.29582257 101.30895623 171.71130763 98.95703125 173.12890625 C96.15130165 174.8175744 93.33968438 176.49590769 90.52563477 178.1706543 C89.23230422 178.94502477 87.94240358 179.72515273 86.65600586 180.51098633 C83.67818742 182.32943471 80.72574966 184.0471304 77.6171875 185.640625 C74.70712463 187.20440879 72.35079916 188.54836263 70.0234375 190.89453125 C68.55579057 195.93173151 69.48027927 200.02099428 70.91015625 204.953125 C74.1782114 209.50182283 78.54753109 210.57573978 83.7109375 212.39453125 C84.74951904 212.7797998 85.78810059 213.16506836 86.8581543 213.56201172 C89.90717987 214.69033743 92.96469515 215.79288749 96.0234375 216.89453125 C98.16505237 217.69064751 100.30295158 218.49592913 102.44018555 219.30371094 C104.34988698 220.02479846 106.26260548 220.73740733 108.17578125 221.44921875 C112.26440274 222.97761676 116.33226835 224.55752334 120.3984375 226.14453125 C127.43417861 228.88920594 134.47573168 231.6182148 141.5234375 234.33203125 C142.57321777 234.73744141 143.62299805 235.14285156 144.70458984 235.56054688 C151.08257578 238.01719849 157.47123251 240.44150496 163.87365723 242.83363342 C167.64919368 244.24531236 171.42192314 245.66441729 175.19458008 247.08377075 C177.06287458 247.78434088 178.93248511 248.48141254 180.8034668 249.17477417 C199.02996107 255.93175922 212.10632085 261.87656331 220.89453125 280.1953125 C225.07568529 290.19246629 223.96505966 302.59844678 220.3984375 312.6171875 C215.16779823 325.08453509 208.62696405 334.38372841 199.0234375 343.89453125 C198.22292969 344.73886719 197.42242187 345.58320312 196.59765625 346.453125 C178.65199063 363.47291409 154.65309298 370.05471558 130.48535156 370.03497314 C128.76847326 370.03942983 128.76847326 370.03942983 127.01691055 370.04397655 C123.19095373 370.05263137 119.36502832 370.05416905 115.5390625 370.05566406 C112.79227516 370.05975916 110.04549108 370.065299 107.29870605 370.07070923 C99.84433654 370.08425304 92.38997242 370.09031032 84.93559265 370.09471989 C80.27871589 370.09748749 75.62184119 370.10172563 70.96496582 370.10622406 C58.0628065 370.11840869 45.16064883 370.12871146 32.25848389 370.13209915 C31.4338462 370.13231872 30.60920851 370.13253828 29.7595818 370.1327645 C28.93302484 370.13298278 28.10646788 370.13320106 27.25486374 370.13342595 C25.58006541 370.13386941 23.90526708 370.13431597 22.23046875 370.13476562 C20.98434429 370.13509777 20.98434429 370.13509777 19.7130456 370.13543662 C6.24269263 370.13938731 -7.22760634 370.15685318 -20.69793844 370.18012515 C-34.53862437 370.20384352 -48.37928319 370.21630112 -62.21998978 370.21746707 C-69.98681841 370.21838325 -77.75357655 370.22412169 -85.52038574 370.24228668 C-92.13101595 370.25769382 -98.74155385 370.26280431 -105.3521986 370.25454858 C-108.72340046 370.25064496 -112.09426541 370.25319337 -115.46546936 370.26560593 C-119.12329871 370.27828454 -122.78065068 370.27247037 -126.43847656 370.26202393 C-128.02953531 370.27410853 -128.02953531 370.27410853 -129.65273666 370.28643727 C-139.18971164 370.22272007 -147.06753265 367.75760303 -153.9765625 360.89453125 C-158.70045496 353.70659114 -160.02221033 346.40184074 -158.9765625 337.89453125 C-156.37851883 330.47428845 -152.08215877 324.47854905 -144.9765625 320.89453125 C-140.18693726 319.32836366 -135.44593943 318.4323593 -130.4765625 317.64453125 C-116.65256748 315.19157585 -104.60896307 309.14020618 -92.68408203 301.91699219 C-91.2073011 301.03269729 -89.70155188 300.19712011 -88.19140625 299.37109375 C-85.95574127 298.00682553 -84.5687526 296.96557064 -82.9765625 294.89453125 C-82.5765568 292.51699717 -82.5765568 292.51699717 -82.72991943 289.88513184 C-82.75747063 288.90348557 -82.78502182 287.92183929 -82.8134079 286.91044617 C-83.06649808 282.23207082 -83.45038675 277.581013 -83.92285156 272.91992188 C-84.02371567 271.88213593 -84.12457977 270.84434998 -84.22850037 269.77511597 C-84.56117602 266.36646907 -84.90152333 262.95863829 -85.2421875 259.55078125 C-85.47961642 257.13932047 -85.71664901 254.72782063 -85.95330811 252.31628418 C-86.45106601 247.25576888 -86.95241281 242.19562658 -87.45654297 237.13574219 C-88.09174831 230.75918443 -88.71999164 224.38196656 -89.34579849 218.00448036 C-91.77631323 193.25192261 -94.28927721 168.5170292 -97.17675781 143.81347656 C-98.1589762 135.39296176 -99.04072838 126.96944873 -99.7265625 118.51953125 C-99.78693695 117.78521881 -99.8473114 117.05090637 -99.90951538 116.29434204 C-100.87644196 104.22522862 -101.26616613 92.18832975 -101.2890625 80.08203125 C-101.29444031 78.95066742 -101.29444031 78.95066742 -101.29992676 77.79644775 C-101.37037591 50.5153883 -96.13235973 25.77974162 -76.6796875 5.5 C-71.59516511 0.78509715 -66.05219157 -2.79686037 -59.9765625 -6.10546875 C-59.27402344 -6.49734375 -58.57148438 -6.88921875 -57.84765625 -7.29296875 C-39.04913851 -17.29922477 -16.68314382 -11.80080646 0 0 Z " fill="#A4BB9E" transform="translate(273.9765625,204.10546875)"/>
<path d="M0 0 C16.53385217 13.15722039 16.53385217 13.15722039 19.11328125 19.62890625 C19.56380859 20.75039062 19.56380859 20.75039062 20.0234375 21.89453125 C21.0134375 22.22453125 22.0034375 22.55453125 23.0234375 22.89453125 C24.27856445 24.4699707 24.27856445 24.4699707 25.51171875 26.5078125 C25.97126953 27.26255859 26.43082031 28.01730469 26.90429688 28.79492188 C27.37673828 29.59091797 27.84917969 30.38691406 28.3359375 31.20703125 C29.02719727 32.3372168 29.02719727 32.3372168 29.73242188 33.49023438 C36.54735342 44.79790244 41.70923992 56.66622282 46.5859375 68.89453125 C47.41765661 70.96666114 48.25080177 73.0382124 49.08432007 75.10961914 C49.62501277 76.45464392 50.16444395 77.80017659 50.70254517 79.14624023 C52.77173973 84.31284148 54.93846328 89.43418179 57.15600586 94.5390625 C58.0234375 96.89453125 58.0234375 96.89453125 58.0234375 99.89453125 C59.69016436 99.12252578 61.3568131 98.35035165 63.0234375 97.578125 C64.12365234 97.06886475 65.22386719 96.55960449 66.35742188 96.03491211 C68.83098272 94.88813783 71.30050391 93.7331691 73.76757812 92.57250977 C80.02231672 89.63686283 86.28632905 86.75507794 92.64819336 84.057724 C95.57373004 82.81256438 98.48454105 81.53493815 101.39453125 80.25393677 C102.80332585 79.64386974 104.21876494 79.04890301 105.640625 78.46994019 C113.90424258 75.2652625 113.90424258 75.2652625 119.72949219 68.9230957 C120.7233864 65.92103137 121.38233044 62.98661521 122.0234375 59.89453125 C129.83610736 41.97384782 145.69188373 34.7567825 162.9609375 27.89453125 C163.75113281 27.59160156 164.54132813 27.28867188 165.35546875 26.9765625 C167.42033421 26.13912805 169.45429887 25.22528352 171.47265625 24.28125 C183.52660755 18.65017181 183.52660755 18.65017181 190.0234375 20.89453125 C196.20539449 25.35129094 200.22173809 34.07961648 201.734375 41.46484375 C204.30847667 63.10121183 196.44161475 81.24186318 183.40234375 98.22998047 C180.51201656 101.71904753 177.16671485 104.72962832 173.76171875 107.7109375 C171.71236552 109.78492999 171.71236552 109.78492999 172.19140625 112.609375 C172.81747426 114.82940546 172.81747426 114.82940546 174.0234375 115.89453125 C174.61443187 124.75944682 174.61443187 124.75944682 171.0234375 128.89453125 C164.26315429 133.89316475 156.86849741 138.04621066 149.6484375 142.33203125 C142.51719682 146.57000093 135.43665861 150.86150806 128.45263672 155.33862305 C121.09262744 160.05272749 113.62943439 164.58924999 106.0234375 168.89453125 C103.66175961 170.29582257 101.30895623 171.71130763 98.95703125 173.12890625 C96.15130165 174.8175744 93.33968438 176.49590769 90.52563477 178.1706543 C89.23230422 178.94502477 87.94240358 179.72515273 86.65600586 180.51098633 C83.67818742 182.32943471 80.72574966 184.0471304 77.6171875 185.640625 C74.70712463 187.20440879 72.35079916 188.54836263 70.0234375 190.89453125 C68.55579057 195.93173151 69.48027927 200.02099428 70.91015625 204.953125 C74.1782114 209.50182283 78.54753109 210.57573978 83.7109375 212.39453125 C84.74951904 212.7797998 85.78810059 213.16506836 86.8581543 213.56201172 C89.90717987 214.69033743 92.96469515 215.79288749 96.0234375 216.89453125 C98.16505237 217.69064751 100.30295158 218.49592913 102.44018555 219.30371094 C104.34988698 220.02479846 106.26260548 220.73740733 108.17578125 221.44921875 C112.26440274 222.97761676 116.33226835 224.55752334 120.3984375 226.14453125 C127.43417861 228.88920594 134.47573168 231.6182148 141.5234375 234.33203125 C142.57321777 234.73744141 143.62299805 235.14285156 144.70458984 235.56054688 C151.08257578 238.01719849 157.47123251 240.44150496 163.87365723 242.83363342 C167.64919368 244.24531236 171.42192314 245.66441729 175.19458008 247.08377075 C177.06287458 247.78434088 178.93248511 248.48141254 180.8034668 249.17477417 C199.02996107 255.93175922 212.10632085 261.87656331 220.89453125 280.1953125 C225.07568529 290.19246629 223.96505966 302.59844678 220.3984375 312.6171875 C215.16779823 325.08453509 208.62696405 334.38372841 199.0234375 343.89453125 C198.22292969 344.73886719 197.42242187 345.58320312 196.59765625 346.453125 C178.65199063 363.47291409 154.65309298 370.05471558 130.48535156 370.03497314 C128.76847326 370.03942983 128.76847326 370.03942983 127.01691055 370.04397655 C123.19095373 370.05263137 119.36502832 370.05416905 115.5390625 370.05566406 C112.79227516 370.05975916 110.04549108 370.065299 107.29870605 370.07070923 C99.84433654 370.08425304 92.38997242 370.09031032 84.93559265 370.09471989 C80.27871589 370.09748749 75.62184119 370.10172563 70.96496582 370.10622406 C58.0628065 370.11840869 45.16064883 370.12871146 32.25848389 370.13209915 C31.4338462 370.13231872 30.60920851 370.13253828 29.7595818 370.1327645 C28.93302484 370.13298278 28.10646788 370.13320106 27.25486374 370.13342595 C25.58006541 370.13386941 23.90526708 370.13431597 22.23046875 370.13476562 C20.98434429 370.13509777 20.98434429 370.13509777 19.7130456 370.13543662 C6.24269263 370.13938731 -7.22760634 370.15685318 -20.69793844 370.18012515 C-34.53862437 370.20384352 -48.37928319 370.21630112 -62.21998978 370.21746707 C-69.98681841 370.21838325 -77.75357655 370.22412169 -85.52038574 370.24228668 C-92.13101595 370.25769382 -98.74155385 370.26280431 -105.3521986 370.25454858 C-108.72340046 370.25064496 -112.09426541 370.25319337 -115.46546936 370.26560593 C-119.12329871 370.27828454 -122.78065068 370.27247037 -126.43847656 370.26202393 C-128.02953531 370.27410853 -128.02953531 370.27410853 -129.65273666 370.28643727 C-139.18971164 370.22272007 -147.06753265 367.75760303 -153.9765625 360.89453125 C-158.70045496 353.70659114 -160.02221033 346.40184074 -158.9765625 337.89453125 C-156.37851883 330.47428845 -152.08215877 324.47854905 -144.9765625 320.89453125 C-140.18693726 319.32836366 -135.44593943 318.4323593 -130.4765625 317.64453125 C-116.65256748 315.19157585 -104.60896307 309.14020618 -92.68408203 301.91699219 C-91.2073011 301.03269729 -89.70155188 300.19712011 -88.19140625 299.37109375 C-85.95574127 298.00682553 -84.5687526 296.96557064 -82.9765625 294.89453125 C-82.5765568 292.51699717 -82.5765568 292.51699717 -82.72991943 289.88513184 C-82.75747063 288.90348557 -82.78502182 287.92183929 -82.8134079 286.91044617 C-83.06649808 282.23207082 -83.45038675 277.581013 -83.92285156 272.91992188 C-84.02371567 271.88213593 -84.12457977 270.84434998 -84.22850037 269.77511597 C-84.56117602 266.36646907 -84.90152333 262.95863829 -85.2421875 259.55078125 C-85.47961642 257.13932047 -85.71664901 254.72782063 -85.95330811 252.31628418 C-86.45106601 247.25576888 -86.95241281 242.19562658 -87.45654297 237.13574219 C-88.09174831 230.75918443 -88.71999164 224.38196656 -89.34579849 218.00448036 C-91.77631323 193.25192261 -94.28927721 168.5170292 -97.17675781 143.81347656 C-98.1589762 135.39296176 -99.04072838 126.96944873 -99.7265625 118.51953125 C-99.78693695 117.78521881 -99.8473114 117.05090637 -99.90951538 116.29434204 C-100.87644196 104.22522862 -101.26616613 92.18832975 -101.2890625 80.08203125 C-101.29444031 78.95066742 -101.29444031 78.95066742 -101.29992676 77.79644775 C-101.37037591 50.5153883 -96.13235973 25.77974162 -76.6796875 5.5 C-71.59516511 0.78509715 -66.05219157 -2.79686037 -59.9765625 -6.10546875 C-59.27402344 -6.49734375 -58.57148438 -6.88921875 -57.84765625 -7.29296875 C-39.04913851 -17.29922477 -16.68314382 -11.80080646 0 0 Z M-69.8515625 25.64453125 C-94.91791442 65.11331031 -80.08449174 127.53945643 -75.31445312 171.24121094 C-73.56419508 187.28362241 -71.90905756 203.33226905 -70.3515625 219.39453125 C-70.25010925 220.43904449 -70.14865601 221.48355774 -70.04412842 222.5597229 C-69.64434121 226.67716239 -69.24510505 230.79465454 -68.84689331 234.9122467 C-67.90656911 244.63449738 -66.95357236 254.35545825 -65.98760986 264.07519531 C-65.81586251 265.80672341 -65.64490156 267.53832972 -65.47479248 269.27001953 C-65.24288345 271.6307241 -65.00848479 273.99116862 -64.7734375 276.3515625 C-64.70700043 277.03342117 -64.64056335 277.71527985 -64.57211304 278.4178009 C-64.18454494 282.27590941 -63.62966939 286.07348664 -62.9765625 289.89453125 C-62.28964954 289.8969196 -61.60273659 289.89930796 -60.89500809 289.90176868 C-44.18640412 289.9608863 -27.47796334 290.03641544 -10.76951981 290.13024616 C-2.68945875 290.17522549 5.39055801 290.21463516 13.47070312 290.2409668 C20.51277487 290.26392964 27.55470671 290.29730833 34.59666753 290.34323281 C38.3258874 290.36718834 42.05496852 290.38590176 45.78426361 290.39214516 C49.9458952 290.3993074 54.10704336 290.42972177 58.26855469 290.4621582 C59.50717255 290.46072311 60.74579041 290.45928802 62.02194214 290.45780945 C63.15493744 290.4703476 64.28793274 290.48288574 65.45526123 290.49580383 C66.93197359 290.50271728 66.93197359 290.50271728 68.43851852 290.50977039 C71.48315665 290.96295967 72.84628118 291.73874648 75.0234375 293.89453125 C75.90224147 297.3469754 76.38329981 299.78495578 75.2734375 303.20703125 C74.0234375 304.89453125 74.0234375 304.89453125 71.0234375 306.89453125 C67.97415309 307.10856509 65.01325311 307.20586816 61.9621582 307.21337891 C61.03513092 307.22342453 60.10810364 307.23347015 59.15298462 307.24382019 C56.08506904 307.27474136 53.01724108 307.29171218 49.94921875 307.30859375 C47.82357525 307.32729821 45.69793923 307.34687107 43.5723114 307.36727905 C37.9746033 307.41868254 32.37687111 307.45826429 26.77905273 307.49542236 C21.06813558 307.53541053 15.35731936 307.5865265 9.64648438 307.63671875 C-1.56112709 307.73357532 -12.76879545 307.81794895 -23.9765625 307.89453125 C-24.77001437 309.31379316 -25.56235943 310.73367387 -26.35424805 312.15380859 C-26.79560593 312.94443695 -27.23696381 313.73506531 -27.69169617 314.5496521 C-29.48748169 317.82695801 -31.14481851 321.16439634 -32.7890625 324.51953125 C-35.88717218 330.80205939 -39.12484696 336.99243687 -42.53833008 343.10986328 C-44.08125397 345.93149846 -44.9765625 347.62285592 -44.9765625 350.89453125 C-20.85387312 350.96475643 3.26880082 351.01758546 27.391572 351.04996777 C38.59335825 351.06540617 49.79508081 351.08643757 60.99682617 351.12084961 C70.76553373 351.1508449 80.53419513 351.17012823 90.30294746 351.17679673 C95.47063949 351.18069188 100.63819954 351.18978236 105.80584908 351.21172142 C110.68053213 351.23224693 115.55503018 351.23833293 120.42975235 351.23385429 C122.20856294 351.23467237 123.98738042 351.24054153 125.76615334 351.25214767 C145.66748927 351.37551248 161.97624289 347.70782974 179.0234375 336.89453125 C180.26480469 336.22164062 180.26480469 336.22164062 181.53125 335.53515625 C191.02562874 329.28493827 200.13286175 314.97093912 203.609375 304.0546875 C205.00639332 296.76646931 205.12500524 288.99794064 201.20703125 282.53125 C194.96979738 273.90616423 184.85668696 270.64390712 175.1796875 267.078125 C173.3253114 266.38320834 171.47115019 265.68771805 169.6171875 264.99169922 C168.68455078 264.64306824 167.75191406 264.29443726 166.79101562 263.9352417 C162.49182532 262.31858913 158.21066016 260.65635732 153.9296875 258.9921875 C152.22480976 258.3311204 150.51989386 257.67015172 148.81494141 257.00927734 C146.12030373 255.96422765 143.42569117 254.91911339 140.73114014 253.87384033 C129.72825719 249.60843137 118.71137401 245.38613215 107.65625 241.2578125 C106.64556458 240.8795784 105.63487915 240.5013443 104.59356689 240.11164856 C99.73964661 238.29549955 94.88320914 236.48680219 90.02148438 234.69165039 C59.32657093 223.27703518 59.32657093 223.27703518 54.046875 212.9921875 C52.53273446 209.41909885 51.83604495 205.99078528 51.44921875 202.13671875 C51.36712158 201.33862793 51.28502441 200.54053711 51.20043945 199.71826172 C51.14202881 199.11643066 51.08361816 198.51459961 51.0234375 197.89453125 C50.44489014 197.90500488 49.86634277 197.91547852 49.27026367 197.92626953 C24.90964759 198.30921425 5.98869183 194.4654612 -12.2890625 177.08203125 C-32.32672089 156.00850037 -47.62062041 117.05978061 -46.9765625 87.89453125 C-45.76116777 84.59565586 -45.02309167 83.9255507 -41.9765625 81.89453125 C-37.81018993 81.53223798 -34.5496107 81.65273165 -30.9765625 83.89453125 C-30.08425312 86.84289616 -29.54062369 89.4348992 -29.1015625 92.45703125 C-23.93808065 122.1982498 -14.67546803 154.55929275 10.6875 173.42578125 C22.68771831 180.97106902 37.69622746 181.77329368 51.39453125 179.28125 C58.07615084 177.0275685 63.97102398 173.08629554 69.86279297 169.28173828 C74.47430831 166.32098911 79.1275724 163.42595094 83.7734375 160.51953125 C84.82587646 159.86025635 85.87831543 159.20098145 86.96264648 158.52172852 C93.32546187 154.54626155 99.72713708 150.66072075 106.21411133 146.89208984 C114.56269589 142.02846946 122.80113127 136.98155583 131.05371094 131.95751953 C137.69663563 127.91350138 144.34784483 123.88445306 151.0234375 119.89453125 C150.42201589 116.81515119 149.47897347 114.84343013 147.58203125 112.35546875 C147.08445312 111.69683838 146.586875 111.03820801 146.07421875 110.35961914 C145.54183594 109.66989014 145.00945312 108.98016113 144.4609375 108.26953125 C143.64882813 107.20690063 143.64882813 107.20690063 142.8203125 106.12280273 C141.73214771 104.70266369 140.6408813 103.28489535 139.54638672 101.86962891 C138.21389566 100.14153454 136.89866599 98.40227338 135.58984375 96.65625 C134.90792969 95.76550781 134.22601563 94.87476563 133.5234375 93.95703125 C132.935625 93.18488281 132.3478125 92.41273438 131.7421875 91.6171875 C129.74871151 89.61918088 128.78940622 89.26567556 126.0234375 88.89453125 C123.98748661 89.47101399 123.98748661 89.47101399 121.953125 90.5625 C121.15277832 90.95493896 120.35243164 91.34737793 119.52783203 91.75170898 C118.66013184 92.19071533 117.79243164 92.62972168 116.8984375 93.08203125 C114.99827073 94.01610481 113.09718643 94.94831358 111.1953125 95.87890625 C110.19048828 96.37326172 109.18566406 96.86761719 108.15039062 97.37695312 C102.8554835 99.94668631 97.50027432 102.38369766 92.1484375 104.83203125 C83.60833085 108.7516239 75.1130988 112.75223267 66.6484375 116.83203125 C35.35701286 131.82698921 35.35701286 131.82698921 20.0234375 128.89453125 C18.2247231 125.07226314 17.5742939 122.11648107 18.0234375 117.89453125 C18.9375 115.8515625 18.9375 115.8515625 21.0234375 113.89453125 C24.19099833 112.81096228 27.4201234 112.2319187 30.7109375 111.64453125 C31.60361328 111.47179687 32.49628906 111.2990625 33.41601562 111.12109375 C35.61614058 110.69754028 37.81800556 110.28934451 40.0234375 109.89453125 C41.19701166 106.49282107 40.86965569 104.70207204 39.53564453 101.39575195 C39.18422394 100.50994949 38.83280334 99.62414703 38.47073364 98.71150208 C38.07820404 97.75740952 37.68567444 96.80331696 37.28125 95.8203125 C36.87945526 94.82307663 36.47766052 93.82584076 36.06369019 92.79838562 C35.2064421 90.67872507 34.34357591 88.56132942 33.47558594 86.44604492 C32.17426851 83.27007394 30.8943607 80.08613456 29.6171875 76.90039062 C22.77649006 59.98838809 15.5788558 44.12338285 4.0234375 29.89453125 C3.01603516 28.59902344 3.01603516 28.59902344 1.98828125 27.27734375 C-0.97400318 23.68491134 -4.37148661 20.8248269 -7.9765625 17.89453125 C-9.10771484 16.97220703 -9.10771484 16.97220703 -10.26171875 16.03125 C-18.68096513 9.63809868 -28.5590929 5.9619457 -39.234375 6.45703125 C-51.18628211 8.36388823 -62.70430122 15.98394733 -69.8515625 25.64453125 Z " fill="#4C783E" transform="translate(273.9765625,204.10546875)"/>
<path d="M0 0 C13.88494862 10.9328701 24.41873558 27.2769259 27 45 C28.92495353 66.24884327 25.09975614 85.79134749 11.21484375 102.4609375 C8.60159234 105.44333036 5.84031033 108.23374684 3 111 C2.40703125 111.60199219 1.8140625 112.20398438 1.203125 112.82421875 C-11.7085508 125.0008239 -30.36547103 129.36086638 -47.61328125 129.14453125 C-62.91029671 128.49171744 -76.6694905 122.97852634 -89 114 C-89.69351563 113.50242188 -90.38703125 113.00484375 -91.1015625 112.4921875 C-104.49547628 101.87310845 -113.9024784 83.74550304 -116 67 C-117.70966559 44.43612081 -112.38584086 25.39528281 -97.76171875 7.953125 C-94.45839818 4.29090707 -94.45839818 4.29090707 -93 3 C-92.34 3 -91.68 3 -91 3 C-91 2.34 -91 1.68 -91 1 C-63.17087618 -19.33321466 -28.16105881 -20.52206192 0 0 Z " fill="#4C783E" transform="translate(321,53)"/>
<path d="M0 0 C1.90931488 1.50537984 3.80122104 3.0281618 5.6875 4.5625 C4.76960813 13.97677555 -0.18122751 22.54572517 -7.19921875 28.91015625 C-19.82843711 38.78475766 -34.03835249 44.3633278 -50.3125 42.5625 C-64.59279313 40.30083054 -77.10417454 33.6971883 -86.125 22.265625 C-87.63269105 20.07947298 -88.99793479 17.8691899 -90.3125 15.5625 C-90.70179688 14.90507812 -91.09109375 14.24765625 -91.4921875 13.5703125 C-94.67521748 7.78509743 -96.40268056 1.57854075 -96.25390625 -5.046875 C-95.3125 -7.4375 -95.3125 -7.4375 -92.6015625 -9.09765625 C-60.25670397 -21.47697844 -28.24271761 -21.81514451 0 0 Z " fill="#A4BB9D" transform="translate(320.3125,120.4375)"/>
<path d="M0 0 C-2.25658658 5.35052289 -4.64829921 10.6229891 -7.125 15.875 C-7.4653125 16.6071875 -7.805625 17.339375 -8.15625 18.09375 C-12.1426513 26.54718254 -16.59556302 34.75947908 -21 43 C-30.0577146 43.09268085 -39.11526597 43.16375493 -48.17335129 43.20724869 C-52.37940977 43.22812361 -56.58514385 43.256439 -60.79101562 43.30175781 C-64.8499597 43.34521976 -68.90859174 43.36913782 -72.96775055 43.37950897 C-74.51633873 43.3868998 -76.06490983 43.40133252 -77.61336517 43.42292023 C-79.78265784 43.45196048 -81.95066141 43.45595599 -84.12011719 43.45410156 C-85.35477722 43.46298401 -86.58943726 43.47186646 -87.86151123 43.48101807 C-91.59852819 42.90826704 -92.77765338 42.00935164 -95 39 C-95.4375 35.9375 -95.4375 35.9375 -95 33 C-92.90552359 30.3292719 -91.27768876 29.58053984 -87.96484375 29.078125 C-87.16457764 28.94374023 -86.36431152 28.80935547 -85.53979492 28.67089844 C-84.25165894 28.46255371 -84.25165894 28.46255371 -82.9375 28.25 C-66.82302876 25.31611925 -48.03533641 19.19129896 -35.578125 8.046875 C-24.5151379 -1.6696505 -14.31525834 -1.27163743 0 0 Z " fill="#A5BC9E" transform="translate(229,512)"/>
<path d="M0 0 C9.50138421 7.43536894 17.15819247 17.06049516 19.640625 29.109375 C19.88970615 31.42976253 20.0376053 33.6684712 20 36 C18.67548828 35.22076172 18.67548828 35.22076172 17.32421875 34.42578125 C-10.61906866 18.12030917 -37.53260726 14.15464594 -69 22 C-70.30190549 22.31194109 -71.60397672 22.62319166 -72.90625 22.93359375 C-75.61281456 23.59442552 -78.30922254 24.2780841 -81 25 C-77.44826819 13.29815897 -69.98677413 4.10267529 -59.5625 -2.25 C-39.38979839 -12.15939728 -19.2403043 -13.17058589 0 0 Z " fill="#A4BB9D" transform="translate(308,67)"/>
<path d="M0 0 C3.46442326 11.79021463 -0.13105126 23.07630961 -5.61328125 33.546875 C-14.19751472 48.73250491 -14.19751472 48.73250491 -21 51 C-21 51.66 -21 52.32 -21 53 C-22.98 53.495 -22.98 53.495 -25 54 C-25.6290625 53.17757812 -26.258125 52.35515625 -26.90625 51.5078125 C-27.31705811 50.97236816 -27.72786621 50.43692383 -28.15112305 49.88525391 C-29.05598092 48.70443485 -29.95846197 47.52179092 -30.85864258 46.33740234 C-32.99890857 43.53547564 -35.16119977 40.81519145 -37.48046875 38.15625 C-42.95619367 31.87612655 -42.95619367 31.87612655 -43.1875 27.25 C-42.795625 26.1775 -42.40375 25.105 -42 24 C-41.649375 22.989375 -41.29875 21.97875 -40.9375 20.9375 C-35.54878499 12.76751273 -25.90282477 9.38104934 -17.25 5.625 C-16.01919037 5.07498093 -14.78871898 4.5242043 -13.55859375 3.97265625 C-4.52801927 0 -4.52801927 0 0 0 Z " fill="#A4BB9D" transform="translate(456,246)"/>
<path d="M0 0 C0.66 0.33 1.32 0.66 2 1 C1.50569398 5.9430602 0.63109975 9.74976194 -2 14 C-2.99 14.33 -3.98 14.66 -5 15 C-5.66 14.34 -6.32 13.68 -7 13 C-6.401875 12.154375 -5.80375 11.30875 -5.1875 10.4375 C-2.9599598 7.11600768 -1.48318179 3.70795447 0 0 Z " fill="#507743" transform="translate(454,270)"/>
<path d="M0 0 C-2 2 -2 2 -3.91015625 2.01171875 C-9.88888889 1.11111111 -9.88888889 1.11111111 -11 0 C-13.86267567 -0.07325168 -16.700719 -0.09238205 -19.5625 -0.0625 C-20.36880859 -0.05798828 -21.17511719 -0.05347656 -22.00585938 -0.04882812 C-24.00393756 -0.03700518 -26.00197783 -0.01906914 -28 0 C-20.25784422 -4.805476 -8.3649197 -2.15868896 0 0 Z " fill="#618057" transform="translate(254,194)"/>
<path d="M0 0 C2.62201165 1.31100583 2.86500715 2.30439197 4 5 C4.69730806 7.3243602 5.36912152 9.65673706 6 12 C2.19364503 8.79239749 -1.54563567 5.59253891 -5 2 C-3.68 2.33 -2.36 2.66 -1 3 C-0.67 2.01 -0.34 1.02 0 0 Z " fill="#547B48" transform="translate(267,217)"/>
<path d="M0 0 C0.33 0 0.66 0 1 0 C1.1875 2.375 1.1875 2.375 1 5 C0.01 5.66 -0.98 6.32 -2 7 C-2.79798218 9.41607417 -2.79798218 9.41607417 -3.1875 12.125 C-3.34605469 13.03507813 -3.50460938 13.94515625 -3.66796875 14.8828125 C-3.77753906 15.58148438 -3.88710937 16.28015625 -4 17 C-4.99 16.67 -5.98 16.34 -7 16 C-6.39642962 12.18653263 -5.26488908 9.17716834 -3.5 5.75 C-2.83484375 4.44289062 -2.83484375 4.44289062 -2.15625 3.109375 C-1 1 -1 1 0 0 Z " fill="#64835B" transform="translate(186,224)"/>
<path d="M0 0 C4.06805518 0.92984118 5.65456692 2.59663126 7.8125 6 C10 9.66153846 10 9.66153846 10 12 C9.01 12 8.02 12 7 12 C7 10.35 7 8.7 7 7 C6.01 7.33 5.02 7.66 4 8 C3.71125 7.236875 3.4225 6.47375 3.125 5.6875 C2.03730987 2.84970692 2.03730987 2.84970692 0 0 Z " fill="#608256" transform="translate(462,225)"/>
<path d="M0 0 C-5.94 3.465 -5.94 3.465 -12 7 C-12 6.01 -12 5.02 -12 4 C-10.390625 2.578125 -10.390625 2.578125 -8.25 1.25 C-7.55390625 0.80140625 -6.8578125 0.3528125 -6.140625 -0.109375 C-4 -1 -4 -1 0 0 Z " fill="#567B4B" transform="translate(373,377)"/>
<path d="M0 0 C2.31 0 4.62 0 7 0 C4.19195732 2.96404505 1.81684226 5.44499019 -2 7 C-1.34 4.69 -0.68 2.38 0 0 Z " fill="#537B47" transform="translate(211,217)"/>
<path d="M0 0 C3.53600465 1.91135386 5.78972846 3.62642766 8 7 C6.02 7.99 6.02 7.99 4 9 C4 7.35 4 5.7 4 4 C3.01 4.33 2.02 4.66 1 5 C0.67 3.35 0.34 1.7 0 0 Z " fill="#5C8052" transform="translate(276,207)"/>
<path d="M0 0 C-1.36983503 3.16115776 -1.9890638 3.9927092 -5 6 C-7.6875 5.625 -7.6875 5.625 -10 5 C-3.63636364 0 -3.63636364 0 0 0 Z " fill="#618256" transform="translate(368,288)"/>
<path d="M0 0 C-1.59622656 1.03320481 -3.20229106 2.05122429 -4.8125 3.0625 C-6.15248047 3.91521484 -6.15248047 3.91521484 -7.51953125 4.78515625 C-10 6 -10 6 -13 5 C-11.232472 3.232472 -9.74170669 2.0926916 -7.625 0.8125 C-7.03976562 0.44769531 -6.45453125 0.08289063 -5.8515625 -0.29296875 C-3.52898272 -1.17986103 -2.30911786 -0.79852754 0 0 Z " fill="#5C7F52" transform="translate(359,386)"/>
<path d="M0 0 C0.33 0.66 0.66 1.32 1 2 C2.98 1.67 4.96 1.34 7 1 C4.31158141 3.25245881 2.35358125 4.88213958 -1 6 C-1.66 4.68 -2.32 3.36 -3 2 C-2.01 1.34 -1.02 0.68 0 0 Z " fill="#547B4A" transform="translate(411,348)"/>
<path d="M0 0 C0.66 0.33 1.32 0.66 2 1 C0.02 4.96 -1.96 8.92 -4 13 C-4.66 12.34 -5.32 11.68 -6 11 C-5.34 10.01 -4.68 9.02 -4 8 C-3.855625 7.175 -3.71125 6.35 -3.5625 5.5 C-2.93767255 2.72298913 -2.15701022 1.78187801 0 0 Z " fill="#537948" transform="translate(240,528)"/>
<path d="M0 0 C3.96 1.32 7.92 2.64 12 4 C8.68756695 4.82810826 6.34023421 5.09278428 3 5 C3 4.34 3 3.68 3 3 C2.01 2.67 1.02 2.34 0 2 C0 1.34 0 0.68 0 0 Z " fill="#597B4C" transform="translate(416,439)"/>
<path d="M0 0 C0.33 0.66 0.66 1.32 1 2 C1.99 2.33 2.98 2.66 4 3 C5.1875 5.0625 5.1875 5.0625 6 7 C5.34 7.66 4.68 8.32 4 9 C2.35 6.69 0.7 4.38 -1 2 C-0.67 1.34 -0.34 0.68 0 0 Z " fill="#557B4A" transform="translate(249,362)"/>
<path d="M0 0 C-3.465 2.97 -3.465 2.97 -7 6 C-7.33 5.01 -7.66 4.02 -8 3 C-5.45189726 -0.82215411 -4.39145359 -1.46381786 0 0 Z " fill="#628459" transform="translate(324,164)"/>
<path d="M0 0 C2.64 0.66 5.28 1.32 8 2 C5.4345406 4.5654594 3.52313332 4.54046087 0 5 C0 3.35 0 1.7 0 0 Z " fill="#597D4F" transform="translate(384,427)"/>
<path d="M0 0 C0.33 0.66 0.66 1.32 1 2 C1.66 2.33 2.32 2.66 3 3 C2.67 3.99 2.34 4.98 2 6 C2.66 6 3.32 6 4 6 C4.33 7.65 4.66 9.3 5 11 C4.34 11 3.68 11 3 11 C0.15549386 7.28026121 -0.3227506 4.62609198 0 0 Z " fill="#537849" transform="translate(291,322)"/>
<path d="M0 0 C0.66 0.33 1.32 0.66 2 1 C2 1.66 2 2.32 2 3 C-0.64 3.66 -3.28 4.32 -6 5 C-6.33 4.34 -6.66 3.68 -7 3 C-4.69631264 1.93347808 -2.35981813 0.93578995 0 0 Z " fill="#608353" transform="translate(451,226)"/>
<path d="M0 0 C0.66 0.33 1.32 0.66 2 1 C1.01 2.485 1.01 2.485 0 4 C-0.66 4 -1.32 4 -2 4 C-2.33 5.32 -2.66 6.64 -3 8 C-4.32 8.33 -5.64 8.66 -7 9 C-6.02180976 7.68677212 -5.0424189 6.37443848 -4.0625 5.0625 C-3.51722656 4.33160156 -2.97195313 3.60070312 -2.41015625 2.84765625 C-1 1 -1 1 0 0 Z " fill="#597E4E" transform="translate(468,525)"/>
<path d="M0 0 C0 4.05345102 -1.58160112 5.8215329 -4 9 C-4.99 9.33 -5.98 9.66 -7 10 C-5.33248852 6.05860922 -2.77289351 3.2107188 0 0 Z " fill="#5F7E53" transform="translate(407,248)"/>
<path d="M0 0 C0.33 0.66 0.66 1.32 1 2 C-0.98 4.97 -0.98 4.97 -3 8 C-3.99 7.34 -4.98 6.68 -6 6 C-4.02 4.02 -2.04 2.04 0 0 Z " fill="#66875D" transform="translate(199,208)"/>
<path d="M0 0 C1.10844919 3.32534757 0.84454356 5.62182575 0 9 C-1.32 9.33 -2.64 9.66 -4 10 C-2.66666667 6.66666667 -1.33333333 3.33333333 0 0 Z " fill="#567B4B" transform="translate(214,541)"/>
<path d="M0 0 C0.66 0.33 1.32 0.66 2 1 C1.67 3.31 1.34 5.62 1 8 C-0.32 7.67 -1.64 7.34 -3 7 C-2.01 4.69 -1.02 2.38 0 0 Z " fill="#557C4A" transform="translate(454,270)"/>
<path d="M0 0 C-3.51187196 2.40814077 -5.72656908 3.36629408 -10 3 C-9 1 -9 1 -6.6875 -0.1875 C-3.88010429 -1.03624754 -2.698065 -0.99928333 0 0 Z " fill="#64825C" transform="translate(226,195)"/>
<path d="M0 0 C0 3.62453269 -0.92469613 5.07920195 -3 8 C-3.99 8.33 -4.98 8.66 -6 9 C-4.47291037 5.56404834 -2.40072955 2.88087546 0 0 Z " fill="#9CB694" transform="translate(239,72)"/>
<path d="M0 0 C-0.99 0.66 -1.98 1.32 -3 2 C-2.67 2.66 -2.34 3.32 -2 4 C-3.32 4.33 -4.64 4.66 -6 5 C-6 4.34 -6 3.68 -6 3 C-6.66 2.67 -7.32 2.34 -8 2 C-7.34 2 -6.68 2 -6 2 C-6 1.34 -6 0.68 -6 0 C-3.50907189 -1.24546405 -2.58919267 -0.7767578 0 0 Z " fill="#5E8354" transform="translate(150,522)"/>
<path d="M0 0 C-2.12780579 2.34058637 -4.11562221 3.70700306 -7 5 C-7 3.68 -7 2.36 -7 1 C-4.53721199 -0.231394 -2.7204945 -0.07159196 0 0 Z " fill="#608257" transform="translate(393,364)"/>
<path d="M0 0 C2 3 2 3 1.8125 5.0625 C1 7 1 7 -2 9 C-2.66 8.34 -3.32 7.68 -4 7 C-3.525625 6.5875 -3.05125 6.175 -2.5625 5.75 C-0.83733482 3.817815 -0.43415125 2.51807725 0 0 Z " fill="#5B7D50" transform="translate(394,270)"/>
<path d="M0 0 C1.32 0.33 2.64 0.66 4 1 C4.33 2.32 4.66 3.64 5 5 C2.69 4.67 0.38 4.34 -2 4 C-1.34 2.68 -0.68 1.36 0 0 Z " fill="#608354" transform="translate(306,247)"/>
<path d="M0 0 C-2 2 -2 2 -3.9453125 2.1953125 C-5.96354167 2.13020833 -7.98177083 2.06510417 -10 2 C-6.19832777 -0.53444815 -4.31588991 -1.33941411 0 0 Z " fill="#597D4F" transform="translate(262,41)"/>
<path d="M0 0 C6.875 3.75 6.875 3.75 8 6 C6.35 5.67 4.7 5.34 3 5 C2.67 4.01 2.34 3.02 2 2 C1.34 2 0.68 2 0 2 C0 1.34 0 0.68 0 0 Z " fill="#66855A" transform="translate(268,201)"/>
<path d="M0 0 C-1 3 -1 3 -2.875 4.25 C-5 5 -5 5 -8 4 C-2.25 0 -2.25 0 0 0 Z " fill="#EFF6EB" transform="translate(320,168)"/>
<path d="M0 0 C1.5625 1.25 1.5625 1.25 3 3 C2.6875 5.1875 2.6875 5.1875 2 7 C0.68 5.35 -0.64 3.7 -2 2 C-1.34 1.34 -0.68 0.68 0 0 Z " fill="#597E4A" transform="translate(340,78)"/>
</svg>
