<?xml version="1.0" standalone="no"?>
<!DOCTYPE svg PUBLIC "-//W3C//DTD SVG 20010904//EN"
 "http://www.w3.org/TR/2001/REC-SVG-20010904/DTD/svg10.dtd">
<svg version="1.0" xmlns="http://www.w3.org/2000/svg"
 width="1920.000000pt" height="1920.000000pt" viewBox="0 0 1920.000000 1920.000000" 
 preserveAspectRatio="xMidYMid meet">

<g transform="translate(0.000000,1920.000000) scale(0.100000,-0.100000)"
fill="#4a773c" stroke="none">
<path d="M9754 17760 c-280 -73 -481 -310 -510 -599 l-7 -73 -36 71 c-202 400
-709 503 -1056 215 -56 -47 -127 -139 -165 -214 -51 -102 -64 -164 -65 -300 0
-118 8 -165 42 -257 4 -10 -25 12 -64 48 -215 202 -501 243 -773 112 -78 -38
-108 -59 -175 -127 -131 -133 -197 -289 -198 -471 -1 -144 34 -264 108 -381
l34 -53 -62 39 c-103 64 -203 93 -338 98 -97 3 -129 0 -195 -18 -306 -84 -509
-349 -507 -665 0 -49 7 -119 17 -155 24 -98 87 -217 151 -287 31 -35 54 -63
50 -63 -3 0 -23 9 -43 19 -53 27 -147 50 -234 57 -235 20 -481 -103 -614 -307
-136 -209 -149 -446 -37 -678 38 -79 59 -109 130 -179 46 -47 76 -81 66 -78
-41 16 -158 36 -211 36 -307 0 -568 -196 -662 -495 -29 -91 -32 -259 -6 -355
48 -179 146 -309 322 -428 16 -10 12 -11 -26 -6 -75 11 -222 5 -285 -11 -99
-25 -214 -88 -290 -157 -353 -324 -277 -896 150 -1115 l70 -35 -54 6 c-114 12
-286 -29 -399 -96 -31 -18 -91 -67 -133 -108 -269 -267 -263 -703 14 -970 62
-59 149 -116 217 -141 30 -11 62 -23 70 -26 8 -4 -19 -10 -61 -13 -415 -38
-699 -446 -593 -853 32 -123 97 -230 198 -324 98 -92 194 -140 361 -178 27 -7
24 -9 -33 -21 -35 -7 -102 -32 -149 -55 -69 -33 -103 -58 -173 -128 -75 -73
-94 -100 -133 -181 -25 -52 -51 -120 -58 -150 -16 -71 -16 -230 0 -300 74
-309 346 -530 655 -530 l81 0 -82 -41 c-218 -109 -357 -325 -370 -574 -6 -127
13 -222 66 -330 74 -149 182 -254 333 -325 164 -77 382 -79 546 -5 l57 25 -56
-52 c-79 -74 -122 -132 -164 -219 -100 -211 -82 -479 44 -663 39 -57 39 -63
-2 -32 -54 41 -176 93 -259 110 -470 97 -893 -321 -804 -794 37 -202 178 -391
356 -478 115 -57 194 -75 315 -75 208 0 398 89 526 247 102 126 152 268 151
431 0 147 -29 251 -102 364 -22 34 -37 61 -34 61 3 0 20 -11 37 -24 45 -34
150 -82 222 -101 79 -21 250 -21 330 0 33 8 98 34 145 57 69 33 101 57 170
127 l86 86 -24 -58 c-135 -334 11 -715 333 -868 109 -52 181 -69 295 -69 119
0 201 19 310 72 114 55 237 176 297 291 l40 79 6 -89 c11 -172 78 -321 198
-441 82 -81 168 -134 274 -169 69 -23 97 -27 205 -27 138 0 195 12 307 66 176
86 315 264 360 459 l17 74 12 -65 c18 -95 49 -171 105 -255 238 -355 749 -401
1049 -95 110 113 169 233 191 394 l12 87 27 -69 c102 -262 351 -432 635 -432
262 0 493 142 610 375 48 97 68 182 69 297 1 54 1 98 2 98 1 0 16 -30 35 -67
24 -48 60 -95 124 -159 74 -74 105 -98 175 -132 112 -54 224 -77 345 -69 177
11 312 73 441 201 164 163 228 372 187 616 -5 33 -4 32 34 -25 93 -141 257
-254 419 -291 116 -25 273 -16 379 23 233 86 391 271 441 514 19 96 15 221
-11 307 -9 30 -15 56 -13 57 2 2 20 -16 39 -40 90 -110 239 -201 380 -231 99
-21 259 -14 349 16 96 32 182 83 256 153 132 123 201 264 220 447 10 101 -13
217 -71 365 -8 19 -7 19 11 -1 70 -79 210 -158 334 -190 98 -25 281 -16 378
19 205 72 354 225 430 440 21 62 25 90 26 197 0 94 -4 140 -18 185 -21 69 -64
165 -98 215 l-23 35 32 -23 c60 -42 178 -91 263 -108 160 -32 335 -1 478 84
84 50 197 167 245 253 142 257 102 580 -98 796 l-65 71 63 -20 c88 -28 242
-34 337 -14 142 30 299 126 387 235 213 266 200 648 -29 897 -53 58 -149 127
-219 158 l-54 24 50 6 c187 25 314 83 431 200 133 133 192 264 201 446 8 175
-36 318 -140 455 -112 147 -293 246 -483 262 l-73 6 87 43 c349 170 483 600
295 944 -53 96 -187 225 -283 272 -112 56 -187 73 -315 72 -60 0 -128 -5 -150
-11 l-40 -12 30 22 c75 54 192 184 228 254 96 184 104 413 22 598 -105 238
-358 404 -618 405 -80 0 -198 -23 -263 -51 l-46 -19 55 59 c71 77 119 157 154
256 25 72 28 93 28 215 0 121 -3 143 -27 211 -74 210 -221 360 -427 433 -80
29 -95 31 -221 31 -121 0 -143 -3 -215 -28 -44 -15 -102 -41 -128 -57 -51 -32
-51 -30 -1 40 84 118 124 248 124 399 0 112 -17 187 -64 286 -88 186 -246 318
-446 371 -79 21 -242 24 -320 5 -75 -18 -204 -80 -264 -125 -26 -21 -46 -34
-44 -29 2 4 20 42 41 83 51 104 70 187 70 300 0 186 -65 344 -197 476 -134
133 -264 192 -446 201 -127 6 -223 -12 -325 -60 -76 -37 -183 -113 -215 -154
-26 -33 -25 -29 7 64 24 69 27 93 28 208 0 110 -4 141 -23 199 -76 227 -231
384 -447 452 -295 94 -612 -22 -786 -286 -15 -23 -15 -18 -2 55 58 325 -140
650 -462 761 -72 25 -94 28 -210 28 -116 0 -138 -3 -210 -28 -109 -38 -176
-78 -257 -154 -71 -67 -127 -147 -165 -236 l-21 -50 -7 59 c-11 100 -33 176
-76 265 -34 69 -58 101 -129 171 -139 138 -287 199 -485 198 -55 0 -118 -7
-161 -19z m869 -1112 c36 -100 84 -174 162 -253 113 -113 235 -172 400 -194
232 -32 486 76 625 267 24 34 45 60 46 59 2 -1 -1 -20 -6 -42 -17 -74 -12
-234 11 -315 53 -191 178 -344 354 -431 108 -53 190 -72 305 -72 173 0 332 62
456 177 l69 64 -29 -87 c-27 -77 -30 -99 -30 -211 0 -109 4 -135 27 -205 70
-212 218 -363 429 -440 98 -36 260 -45 370 -21 88 20 193 68 262 120 26 21 46
34 44 29 -2 -4 -18 -37 -36 -73 -103 -211 -93 -462 26 -659 106 -175 291 -295
500 -322 143 -19 304 13 429 87 l43 25 -53 -79 c-77 -112 -107 -207 -114 -352
-6 -140 10 -218 68 -337 67 -136 194 -256 336 -319 140 -62 338 -71 486 -20
93 31 97 32 64 6 -42 -33 -118 -140 -154 -218 -98 -210 -78 -467 49 -659 66
-98 164 -185 262 -233 122 -60 187 -73 336 -68 69 3 134 8 145 12 19 7 19 7 1
-6 -207 -141 -318 -346 -318 -583 0 -110 21 -203 67 -299 107 -218 307 -353
563 -381 l63 -7 -78 -39 c-241 -118 -383 -345 -383 -614 0 -190 62 -338 200
-476 67 -68 103 -95 169 -127 45 -23 77 -44 70 -46 -8 -2 -44 -7 -80 -10 -144
-13 -271 -77 -390 -196 -147 -147 -206 -299 -197 -513 7 -176 59 -299 183
-435 34 -38 51 -63 40 -58 -103 39 -282 49 -398 22 -194 -45 -370 -189 -457
-372 -101 -215 -81 -478 52 -671 16 -24 27 -43 24 -43 -2 0 -27 15 -55 34
-155 105 -390 134 -576 71 -222 -74 -395 -260 -451 -485 -32 -127 -18 -304 32
-419 13 -29 24 -55 24 -58 0 -2 -28 19 -62 47 -133 107 -279 160 -443 160
-314 0 -579 -204 -662 -510 -23 -85 -23 -252 0 -336 9 -34 17 -65 17 -69 0 -4
-18 15 -40 43 -48 60 -141 132 -223 174 -184 92 -410 91 -607 -5 -153 -74
-289 -234 -344 -402 -26 -81 -37 -196 -26 -282 6 -42 8 -78 6 -80 -2 -2 -13
12 -25 32 -81 138 -245 256 -416 300 -75 19 -240 19 -322 0 -227 -53 -415
-230 -490 -460 -21 -65 -26 -100 -27 -193 l-1 -112 -17 40 c-40 93 -150 224
-242 286 -195 133 -463 151 -680 45 -217 -106 -354 -306 -382 -561 l-7 -65
-18 52 c-67 197 -226 355 -428 427 -79 28 -96 30 -216 30 -116 0 -139 -3 -210
-28 -118 -41 -181 -80 -271 -170 -94 -95 -154 -200 -182 -321 l-18 -76 -11 58
c-41 215 -185 400 -386 493 -95 44 -171 61 -282 62 -259 1 -487 -135 -605
-364 -23 -43 -42 -78 -43 -78 -1 0 -3 34 -4 75 -3 100 -24 182 -75 285 -56
114 -177 238 -288 293 -199 99 -431 102 -617 9 -82 -42 -175 -114 -224 -175
-23 -29 -38 -43 -34 -32 46 113 58 165 63 275 4 98 1 129 -17 195 -58 209
-175 351 -366 445 -174 86 -370 91 -556 16 l-62 -25 57 51 c233 207 294 552
149 831 -51 98 -182 229 -280 280 -92 48 -207 77 -307 79 l-78 1 71 37 c176
93 288 223 348 405 23 69 26 97 26 205 0 108 -3 136 -26 205 -77 234 -268 408
-505 461 l-75 17 74 18 c111 28 206 79 288 155 142 131 212 276 227 466 16
202 -87 438 -245 565 -48 39 -156 97 -241 130 -20 8 -12 11 50 17 374 34 656
384 609 756 -29 235 -163 426 -371 531 -32 16 -58 30 -58 32 0 1 48 2 108 3
125 1 191 17 303 75 172 90 301 256 345 446 17 74 19 214 5 288 -33 171 -147
339 -295 436 -64 42 -63 43 38 29 128 -19 299 18 424 92 85 50 201 170 244
253 152 293 99 613 -137 833 l-74 69 67 -19 c89 -26 252 -28 342 -4 245 64
432 252 496 496 23 85 23 244 1 330 -25 95 -91 220 -153 289 l-55 60 45 -20
c128 -56 292 -73 430 -44 131 28 285 121 375 226 190 223 211 560 51 807 l-38
60 63 -40 c258 -161 596 -131 820 74 207 190 279 491 179 753 -4 11 25 -10 66
-48 81 -75 193 -136 300 -164 76 -19 231 -21 305 -4 296 68 510 312 534 611
l6 75 31 -65 c115 -240 353 -390 618 -390 115 0 198 20 305 71 67 33 102 58
171 128 73 72 95 101 131 177 l44 90 12 -85 c6 -47 22 -116 36 -153z"/>
<path d="M2775 3485 c-231 -107 -516 -238 -634 -292 -118 -54 -327 -150 -465
-214 l-251 -115 -3 -722 -2 -722 727 2 727 3 408 878 c224 483 408 882 408
886 0 4 -11 13 -25 19 -53 24 -172 109 -232 165 -69 65 -143 161 -193 250 -17
31 -35 57 -38 56 -4 0 -196 -88 -427 -194z"/>
</g>
</svg>
